<?xml version="1.0" encoding="UTF-8"?>
<svg xmlns="http://www.w3.org/2000/svg" xmlns:xlink="http://www.w3.org/1999/xlink" id="Layer_1" data-name="Layer 1" viewBox="0 0 849.9717 540">
  <a>
    <path id="fullLogo" d="M270.0011,520h-.0022c-138.0715,0-249.9989-111.9295-249.9989-250.0011S131.9274,20,269.9989,20h.0022c138.0715,0,249.9989,111.9274,249.9989,249.9989s-111.9274,250.0011-249.9989,250.0011" style="fill: #afca1a;"></path>
  </a>
  <a>
    <polygon id="fullLogo-2" data-name="fullLogo" points="141.7625 174.5334 141.5008 193.7282 141.5008 343.3537 141.7625 362.5507 101.7916 362.5507 102.0555 343.3537 102.0555 193.7282 101.7916 174.5334 141.7625 174.5334" style="fill: #14133b;"></polygon>
  </a>
  <a>
    <path id="fullLogo-3" data-name="fullLogo" d="M197.5052,294.1815v11.0414c0,17.3582,7.6256,26.0373,19.1969,26.0373,10.2539,0,15.5129-7.0999,15.5129-17.356,0-11.5714-6.5742-18.6713-22.6149-29.7148l-17.3538-11.8332c-19.7226-13.4102-26.5608-28.1378-26.5608-47.5965,0-35.2355,22.8767-53.3811,51.8041-53.3811,27.3482,0,51.2784,16.3025,51.2784,58.1122v7.6277h-34.7098v-4.995c0-18.1478-6.5764-26.2968-17.6177-26.2968-8.6791,0-14.7276,5.2567-14.7276,15.5129,0,6.3125,2.3666,12.6228,20.5101,24.4559l17.6199,11.5692c30.2383,19.9866,31.5536,44.9681,31.5536,53.9112,0,34.7098-20.2461,54.4325-52.3276,54.4325-29.1891,0-57.8526-16.3047-57.8526-57.8526v-13.6741h36.289Z" style="fill: #14133b;"></path>
  </a>
  <a>
    <polygon id="fullLogo-4" data-name="fullLogo" points="291.6367 343.3548 291.6367 193.7272 291.3727 174.5345 342.6511 174.5345 364.2125 271.8303 365.53 271.8303 385.7783 174.5345 436.7928 174.5345 436.5289 193.7272 436.5289 343.3548 436.7928 362.5518 400.7655 362.5518 401.0295 343.3548 401.0295 257.3644 399.7164 257.3644 377.1014 362.5518 351.0663 362.5518 328.4514 257.3644 327.1339 257.3644 327.1339 343.3548 327.4 362.5518 291.3727 362.5518 291.6367 343.3548" style="fill: #14133b;"></polygon>
  </a>
  <a>
    <polygon id="fullLogo-5" data-name="fullLogo" points="487.8956 175.096 487.8215 180.6516 487.8215 223.9685 487.8956 229.5285 476.3242 229.5285 476.4006 223.9685 476.4006 180.6516 476.3242 175.096 487.8956 175.096" style="fill: #14133b;"></polygon>
  </a>
  <a>
    <polygon id="fullLogo-6" data-name="fullLogo" points="495.1382 223.969 495.1382 180.652 495.064 175.0965 504.5044 175.0965 514.5511 201.0574 514.9328 201.0574 514.9328 180.652 514.8586 175.0965 525.5924 175.0965 525.5161 180.652 525.5161 223.969 525.5924 229.5289 516.0758 229.5289 506.0247 203.6421 505.6451 203.6421 505.6451 223.969 505.7237 229.5289 495.064 229.5289 495.1382 223.969" style="fill: #14133b;"></polygon>
  </a>
  <path id="fullLogo-7" data-name="fullLogo" d="M550.6599,192.1488c0-3.8062-.0785-6.1685-3.7321-6.1685h-2.6655v32.6639h2.6655c3.6536,0,3.7321-2.3623,3.7321-6.1685v-20.3268Zm11.4166,20.9354c0,9.4403-2.7396,16.4443-14.0079,16.4443h-15.3035l.0785-5.5599v-43.3169l-.0785-5.5556h15.3035c10.9628,0,13.8573,6.2427,14.0079,16.4465v21.5418Z" style="fill: #14133b;"></path>
  <a>
    <polygon id="fullLogo-8" data-name="fullLogo" points="579.3773 207.6034 579.3773 218.6448 593.2368 218.6448 593.2368 229.5291 567.8823 229.5291 567.9586 223.9692 567.9586 180.6523 567.8823 175.0967 593.0056 175.0967 593.0056 185.981 579.3773 185.981 579.3773 196.7192 591.5594 196.7192 591.5594 207.6034 579.3773 207.6034" style="fill: #14133b;"></polygon>
  </a>
  <path id="fullLogo-9" data-name="fullLogo" d="M609.6187,197.9334h2.0547c3.0472,0,4.188-1.601,4.188-5.176v-2.5106c0-3.5772-1.1408-4.947-4.188-4.947h-2.0547v12.6337Zm17.4346-3.5772c0,8.6791-4.1116,13.9359-13.0961,13.9359h-4.3384v15.6765l.0764,5.5599h-11.5736l.0764-5.5599v-43.3169l-.0764-5.5556h15.8356c8.9845,0,13.0961,4.7965,13.0961,13.4778v5.7824Z" style="fill: #14133b;"></path>
  <a>
    <polygon id="fullLogo-10" data-name="fullLogo" points="642.8287 207.6034 642.8287 218.6448 656.686 218.6448 656.686 229.5291 631.3314 229.5291 631.4077 223.9692 631.4077 180.6523 631.3314 175.0967 656.4547 175.0967 656.4547 185.981 642.8287 185.981 642.8287 196.7192 655.0086 196.7192 655.0086 207.6034 642.8287 207.6034" style="fill: #14133b;"></polygon>
  </a>
  <a>
    <polygon id="fullLogo-11" data-name="fullLogo" points="661.6481 223.969 661.6481 180.652 661.5718 175.0965 671.0121 175.0965 681.061 201.0574 681.4427 201.0574 681.4427 180.652 681.3664 175.0965 692.1002 175.0965 692.026 180.652 692.026 223.969 692.1002 229.5289 682.5857 229.5289 672.5346 203.6421 672.1551 203.6421 672.1551 223.969 672.2314 229.5289 661.5718 229.5289 661.6481 223.969" style="fill: #14133b;"></polygon>
  </a>
  <path id="fullLogo-12" data-name="fullLogo" d="M717.1679,192.1488c0-3.8062-.0785-6.1685-3.7321-6.1685h-2.6633v32.6639h2.6633c3.6535,0,3.7321-2.3623,3.7321-6.1685v-20.3268Zm11.4187,20.9354c0,9.4403-2.7396,16.4443-14.0079,16.4443h-15.3035l.0764-5.5599v-43.3169l-.0764-5.5556h15.3035c10.9628,0,13.8574,6.2427,14.0079,16.4465v21.5418Z" style="fill: #14133b;"></path>
  <a>
    <polygon id="fullLogo-13" data-name="fullLogo" points="745.8894 207.6034 745.8894 218.6448 759.7467 218.6448 759.7467 229.5291 734.3921 229.5291 734.4707 223.9692 734.4707 180.6523 734.3921 175.0967 759.5155 175.0967 759.5155 185.981 745.8894 185.981 745.8894 196.7192 758.0715 196.7192 758.0715 207.6034 745.8894 207.6034" style="fill: #14133b;"></polygon>
  </a>
  <a>
    <polygon id="fullLogo-14" data-name="fullLogo" points="764.7068 223.969 764.7068 180.652 764.6326 175.0965 774.0729 175.0965 784.1218 201.0574 784.5014 201.0574 784.5014 180.652 784.4272 175.0965 795.161 175.0965 795.0847 180.652 795.0847 223.969 795.161 229.5289 785.6465 229.5289 775.5954 203.6421 775.2137 203.6421 775.2137 223.969 775.2923 229.5289 764.6326 229.5289 764.7068 223.969" style="fill: #14133b;"></polygon>
  </a>
  <a>
    <polygon id="fullLogo-15" data-name="fullLogo" points="798.7584 175.0964 798.7584 185.9807 808.6546 185.9807 808.6546 223.969 808.5804 229.5289 820.1496 229.5289 820.0754 223.969 820.0754 185.9807 829.9717 185.9807 829.9717 175.0964 798.7584 175.0964" style="fill: #14133b;"></polygon>
  </a>
  <a>
    <path id="fullLogo-16" data-name="fullLogo" d="M484.5473,276.1713v3.1999c0,5.0212,2.2074,7.5383,5.5577,7.5383,2.9687,0,4.4912-2.0591,4.4912-5.0299,0-3.346-1.9042-5.4029-6.5459-8.6028l-5.0255-3.4223c-5.7082-3.8869-7.6888-8.1512-7.6888-13.781,0-10.2038,6.6222-15.454,14.9959-15.454,7.9179,0,14.8476,4.718,14.8476,16.8238v2.2074h-10.0489v-1.4505c0-5.2502-1.9042-7.6125-5.0997-7.6125-2.515,0-4.2643,1.5269-4.2643,4.4955,0,1.8279,.6849,3.6514,5.9373,7.0781l5.0997,3.3547c8.7555,5.7846,9.1372,13.0175,9.1372,15.6023,0,10.0489-5.8631,15.7572-15.1508,15.7572-8.4501,0-16.7475-4.718-16.7475-16.7431v-3.9611h10.5048Z" style="fill: #14133b;"></path>
  </a>
  <path id="fullLogo-17" data-name="fullLogo" d="M520.8034,277.3845c0,5.488,0,8.4566,3.1977,8.4566s3.1976-2.9686,3.1976-8.4566v-17.2731c0-5.488,0-8.4566-3.1976-8.4566s-3.1977,2.9686-3.1977,8.4566v17.2731Zm3.1977,19.4914c-14.2347,0-14.6164-12.18-14.6164-21.9257v-12.3305c0-9.8177,.3817-21.9998,14.6164-21.9998s14.6164,11.0348,14.6164,21.9998v12.3305c0,10.8908-.3817,21.9257-14.6164,21.9257" style="fill: #14133b;"></path>
  <a>
    <path id="fullLogo-18" data-name="fullLogo" d="M561.2479,263.917v-3.8062c0-5.488,0-8.4566-3.1977-8.4566s-3.1977,2.9686-3.1977,8.4566v17.2753c0,5.4858,0,8.4566,3.1977,8.4566s3.1977-2.9708,3.1977-8.4566v-4.1836h11.4187v1.5988c0,10.9607-.3795,22.074-14.6164,22.074s-14.6164-12.18-14.6164-21.9998v-12.3283c0-9.7457,.3795-21.9279,14.6164-21.9279s14.6164,11.0348,14.6164,21.9279v1.3698h-11.4187Z" style="fill: #14133b;"></path>
  </a>
  <a>
    <polygon id="fullLogo-19" data-name="fullLogo" points="589.4334 241.5317 589.3592 247.0873 589.3592 290.4043 589.4334 295.9642 577.862 295.9642 577.9383 290.4043 577.9383 247.0873 577.862 241.5317 589.4334 241.5317" style="fill: #14133b;"></polygon>
  </a>
  <a>
    <polygon id="fullLogo-20" data-name="fullLogo" points="606.8961 274.0392 606.8961 285.0806 620.7534 285.0806 620.7534 295.9649 595.3988 295.9649 595.4774 290.4049 595.4774 247.088 595.3988 241.5324 620.5222 241.5324 620.5222 252.4167 606.8961 252.4167 606.8961 263.1549 619.0782 263.1549 619.0782 274.0392 606.8961 274.0392" style="fill: #14133b;"></polygon>
  </a>
  <a>
    <polygon id="fullLogo-21" data-name="fullLogo" points="646.371 252.4165 646.371 290.4047 646.4473 295.9647 634.8737 295.9647 634.9523 290.4047 634.9523 252.4165 625.0561 252.4165 625.0561 241.5322 656.2672 241.5322 656.2672 252.4165 646.371 252.4165" style="fill: #14133b;"></polygon>
  </a>
  <a>
    <polygon id="fullLogo-22" data-name="fullLogo" points="669.8428 290.4047 669.8428 276.4012 658.6509 241.5322 670.6803 241.5322 674.107 252.8746 675.7822 260.3344 676.1617 260.3344 677.8369 252.8746 681.2615 241.5322 692.5296 241.5322 681.2615 276.4012 681.2615 290.4047 681.3378 295.9647 669.7664 295.9647 669.8428 290.4047" style="fill: #14133b;"></polygon>
  </a>
  <path id="fullLogo-23" data-name="fullLogo" d="M713.3327,277.3845c0,5.488,0,8.4566,3.1977,8.4566s3.1976-2.9686,3.1976-8.4566v-17.2731c0-5.488,0-8.4566-3.1976-8.4566s-3.1977,2.9686-3.1977,8.4566v17.2731Zm3.1977,19.4914c-14.2369,0-14.6164-12.18-14.6164-21.9257v-12.3305c0-9.8177,.3796-21.9998,14.6164-21.9998s14.6164,11.0348,14.6164,21.9998v12.3305c0,10.8908-.3818,21.9257-14.6164,21.9257" style="fill: #14133b;"></path>
  <a>
    <polygon id="fullLogo-24" data-name="fullLogo" points="748.0536 274.0392 748.0536 290.4049 748.1299 295.9649 736.5563 295.9649 736.6349 290.4049 736.6349 247.088 736.5563 241.5324 761.3002 241.5324 761.3002 252.4167 748.0536 252.4167 748.0536 263.1549 759.854 263.1549 759.854 274.0392 748.0536 274.0392" style="fill: #14133b;"></polygon>
  </a>
  <a>
    <polygon id="fullLogo-25" data-name="fullLogo" points="476.4017 356.6424 476.4017 313.3255 476.3253 307.7699 491.1707 307.7699 497.4134 335.9382 497.7951 335.9382 503.6561 307.7699 518.4273 307.7699 518.3488 313.3255 518.3488 356.6424 518.4273 362.2023 507.9945 362.2023 508.073 356.6424 508.073 331.7481 507.6935 331.7481 501.1455 362.2023 493.6093 362.2023 487.0613 331.7481 486.6796 331.7481 486.6796 356.6424 486.7537 362.2023 476.3253 362.2023 476.4017 356.6424" style="fill: #14133b;"></polygon>
  </a>
  <a>
    <path id="fullLogo-26" data-name="fullLogo" d="M553.5241,307.7692l-.0742,5.5556v34.4895c0,9.8199-5.1019,15.2991-14.3132,15.2991s-14.5422-5.4792-14.5422-15.2991v-34.4895l-.0742-5.5556h11.5714l-.0764,5.5556v34.0315c0,3.0428,.7612,4.7224,3.1955,4.7224,2.515,0,3.1977-1.6795,3.1977-4.7224v-39.5871h11.1155Z" style="fill: #14133b;"></path>
  </a>
  <a>
    <path id="fullLogo-27" data-name="fullLogo" d="M568.4114,342.409v3.1999c0,5.0212,2.2074,7.5383,5.5577,7.5383,2.9687,0,4.4912-2.0591,4.4912-5.0299,0-3.346-1.9042-5.4029-6.548-8.6028l-5.0234-3.4223c-5.7082-3.8869-7.6888-8.1512-7.6888-13.781,0-10.2038,6.6222-15.454,14.9959-15.454,7.9178,0,14.8476,4.718,14.8476,16.826v2.2074h-10.0489v-1.444c0-5.2589-1.9042-7.6212-5.0997-7.6212-2.515,0-4.2643,1.5269-4.2643,4.4955,0,1.8279,.6849,3.6514,5.9373,7.0781l5.0997,3.3482c8.7555,5.7911,9.1393,13.0241,9.1393,15.611,0,10.0467-5.8653,15.755-15.1529,15.755-8.4501,0-16.7475-4.7158-16.7475-16.7496v-3.9546h10.5048Z" style="fill: #14133b;"></path>
  </a>
  <a>
    <polygon id="fullLogo-28" data-name="fullLogo" points="605.6585 307.7692 605.5842 313.3248 605.5842 356.6418 605.6585 362.2017 594.087 362.2017 594.1612 356.6418 594.1612 313.3248 594.087 307.7692 605.6585 307.7692" style="fill: #14133b;"></polygon>
  </a>
  <a>
    <path id="fullLogo-29" data-name="fullLogo" d="M629.0405,330.1545v-3.8062c0-5.488,0-8.4566-3.1977-8.4566s-3.1977,2.9686-3.1977,8.4566v17.2775c0,5.4836,0,8.4544,3.1977,8.4544s3.1977-2.9708,3.1977-8.4544v-4.1858h11.4187v1.5988c0,10.9607-.3796,22.074-14.6164,22.074s-14.6186-12.18-14.6186-21.9998v-12.3283c0-9.7457,.3818-21.9279,14.6186-21.9279s14.6164,11.0348,14.6164,21.9279v1.3698h-11.4187Z" style="fill: #14133b;"></path>
  </a>
  <a>
    <polygon id="fullLogo-30" data-name="fullLogo" points="657.2261 307.7692 657.1519 313.3248 657.1519 356.6418 657.2261 362.2017 645.6547 362.2017 645.7288 356.6418 645.7288 313.3248 645.6547 307.7692 657.2261 307.7692" style="fill: #14133b;"></polygon>
  </a>
  <path id="fullLogo-31" data-name="fullLogo" d="M673.6808,346.8221h5.8631l-2.7396-18.8h-.3818l-2.7418,18.8Zm20.5581,15.3798h-12.1822l-.8376-5.248h-9.1371l-.7612,5.248h-11.4187l11.4187-54.4325h11.4209l11.4973,54.4325Z" style="fill: #14133b;"></path>
  <a>
    <polygon id="fullLogo-32" data-name="fullLogo" points="696.9951 356.6424 696.9951 313.3255 696.9187 307.7699 706.3591 307.7699 716.4079 333.7308 716.7896 333.7308 716.7896 313.3255 716.7133 307.7699 727.4471 307.7699 727.3729 313.3255 727.3729 356.6424 727.4471 362.2023 717.9326 362.2023 707.8815 336.3156 707.502 336.3156 707.502 356.6424 707.5783 362.2023 696.9187 362.2023 696.9951 356.6424" style="fill: #14133b;"></polygon>
  </a>
  <a>
    <path id="fullLogo-33" data-name="fullLogo" d="M742.0851,342.409v3.1999c0,5.0212,2.2074,7.5383,5.5577,7.5383,2.9687,0,4.489-2.0591,4.489-5.0299,0-3.346-1.902-5.4029-6.5459-8.6028l-5.0234-3.4223c-5.7104-3.8869-7.691-8.1512-7.691-13.781,0-10.2038,6.6244-15.454,14.9981-15.454,7.9179,0,14.8476,4.718,14.8476,16.826v2.2074h-10.0489v-1.444c0-5.2589-1.9042-7.6212-5.1019-7.6212-2.5127,0-4.2621,1.5269-4.2621,4.4955,0,1.8279,.6827,3.6514,5.9373,7.0781l5.0997,3.3482c8.7555,5.7911,9.1371,13.0241,9.1371,15.611,0,10.0467-5.8631,15.755-15.1529,15.755-8.45,0-16.7475-4.7158-16.7475-16.7496v-3.9546h10.507Z" style="fill: #14133b;"></path>
  </a>
</svg>
